<svg xmlns="http://www.w3.org/2000/svg" width="24" height="24" viewBox="0 0 24 24" fill="none" stroke="#3a9640" stroke-width="2" stroke-linecap="round" stroke-linejoin="round">
  <path d="M7 21h10a5 5 0 0 0 5-5V8a2 2 0 0 0-2-2h-2.4a2 2 0 0 1-1.9-1.3L15 3H9l-.7 1.7A2 2 0 0 1 6.4 6H4a2 2 0 0 0-2 2v8a5 5 0 0 0 5 5Z"></path>
  <path d="M15 11v.01"></path>
  <path d="M11 14v.01"></path>
  <path d="M16 14v.01"></path>
  <path d="M12 17v.01"></path>
  <path d="M7 11v.01"></path>
  <path d="M9 14v.01"></path>
  <path d="M8 17v.01"></path>
  <path d="M15 17v.01"></path>
  <path d="M19 11v.01"></path>
</svg>